<svg xmlns="http://www.w3.org/2000/svg" version="1.1" xmlns:xlink="http://www.w3.org/1999/xlink" xmlns:svgjs="http://svgjs.dev/svgjs" width="128" height="128" viewBox="0 0 128 128"><g transform="matrix(0.4103585657370518,0,0,0.4103585657370518,37.897865788637425,12.33387096774193)"><svg viewBox="0 0 79 155" data-background-color="#c8c8c8" preserveAspectRatio="xMidYMid meet" height="251" width="128" xmlns="http://www.w3.org/2000/svg" xmlns:xlink="http://www.w3.org/1999/xlink"><g id="tight-bounds" transform="matrix(1,0,0,1,-0.2418674698795229,0.25)"><svg viewBox="0 0 79.48373493975905 154.5" height="154.5" width="79.48373493975905"><g><svg viewBox="0 0 79.48373493975905 154.5" height="154.5" width="79.48373493975905"><g><svg viewBox="0 0 79.48373493975905 154.5" height="154.5" width="79.48373493975905"><g id="textblocktransform"><svg viewBox="0 0 79.48373493975905 154.5" height="154.5" width="79.48373493975905" id="textblock"><g><svg viewBox="0 0 79.48373493975905 154.5" height="154.5" width="79.48373493975905"><g transform="matrix(1,0,0,1,0,0)"><svg width="79.48373493975905" viewBox="2.05 -40.95 48.75 41.50000000000001" height="154.5" data-palette-color="#000000"><g class="undefined-text-0" data-fill-palette-color="primary" id="text-0"><path d="M13.25 0.55L13.25 0.55Q9.6 0.55 7.15-0.88 4.7-2.3 3.45-5.05 2.2-7.8 2.05-11.8L2.05-11.8 8.4-13.05Q8.5-10.7 8.97-8.9 9.45-7.1 10.43-6.13 11.4-5.15 13-5.15L13-5.15Q14.8-5.15 15.55-6.23 16.3-7.3 16.3-8.95L16.3-8.95Q16.3-11.6 15.1-13.3 13.9-15 11.9-16.7L11.9-16.7 6.8-21.2Q4.65-23.05 3.38-25.33 2.1-27.6 2.1-30.95L2.1-30.95Q2.1-35.75 4.9-38.35 7.7-40.95 12.55-40.95L12.55-40.95Q15.4-40.95 17.3-40.08 19.2-39.2 20.33-37.65 21.45-36.1 22-34.13 22.55-32.15 22.7-29.95L22.7-29.95 16.4-28.85Q16.3-30.75 15.98-32.25 15.65-33.75 14.83-34.6 14-35.45 12.4-35.45L12.4-35.45Q10.75-35.45 9.88-34.38 9-33.3 9-31.7L9-31.7Q9-29.65 9.85-28.33 10.7-27 12.3-25.6L12.3-25.6 17.35-21.15Q19.85-19.05 21.63-16.23 23.4-13.4 23.4-9.4L23.4-9.4Q23.4-6.5 22.13-4.25 20.85-2 18.57-0.73 16.3 0.55 13.25 0.55ZM39.4 0L27.75 0 27.75-40.5 37.7-40.5Q40.4-40.5 42.57-40 44.75-39.5 46.32-38.33 47.9-37.15 48.75-35.15 49.6-33.15 49.6-30.1L49.6-30.1Q49.6-27.65 48.92-25.9 48.25-24.15 46.95-23.13 45.65-22.1 43.7-21.75L43.7-21.75Q46.1-21.35 47.67-20.08 49.25-18.8 50.02-16.75 50.8-14.7 50.8-11.8L50.8-11.8Q50.8-8.9 50.07-6.68 49.35-4.45 47.92-2.98 46.5-1.5 44.37-0.75 42.25 0 39.4 0L39.4 0ZM35.15-18.85L35.15-5.2 37.95-5.2Q41.3-5.2 42.5-6.83 43.7-8.45 43.7-11.85L43.7-11.85Q43.7-14.3 43.12-15.83 42.55-17.35 41.22-18.1 39.9-18.85 37.7-18.85L37.7-18.85 35.15-18.85ZM35.15-35.35L35.15-23.95 37.65-23.95Q39.85-23.95 41.05-24.6 42.25-25.25 42.72-26.6 43.2-27.95 43.2-30L43.2-30Q43.2-32.15 42.47-33.33 41.75-34.5 40.3-34.93 38.85-35.35 36.6-35.35L36.6-35.35 35.15-35.35Z" fill="#ffffff" data-fill-palette-color="primary"></path></g></svg></g></svg></g></svg></g></svg></g><g></g></svg></g><defs></defs></svg><rect width="79.48373493975905" height="154.5" fill="none" stroke="none" visibility="hidden"></rect></g></svg></g></svg>