<svg xmlns="http://www.w3.org/2000/svg" version="1.1" xmlns:xlink="http://www.w3.org/1999/xlink" xmlns:svgjs="http://svgjs.dev/svgjs" width="2000" height="1500" viewBox="0 0 2000 1500"><rect width="2000" height="1500" fill="#c8c8c8"></rect><g transform="matrix(0.75,0,0,0.75,249.09092468846632,600.6230843001666)"><svg viewBox="0 0 396 79" data-background-color="#c8c8c8" preserveAspectRatio="xMidYMid meet" height="398" width="2000" xmlns="http://www.w3.org/2000/svg" xmlns:xlink="http://www.w3.org/1999/xlink"><g id="tight-bounds" transform="matrix(1,0,0,1,0.23999588224489798,0.033589079687885715)"><svg viewBox="0 0 395.52 78.9328203895167" height="78.9328203895167" width="395.52"><g><svg viewBox="0 0 395.52 78.9328203895167" height="78.9328203895167" width="395.52"><g><svg viewBox="0 0 395.52 78.9328203895167" height="78.9328203895167" width="395.52"><g id="textblocktransform"><svg viewBox="0 0 395.52 78.9328203895167" height="78.9328203895167" width="395.52" id="textblock"><g><svg viewBox="0 0 395.52 78.9328203895167" height="78.9328203895167" width="395.52"><g transform="matrix(1,0,0,1,0,0)"><svg width="395.52" viewBox="2.049999952316284 -40.95000076293945 207.47999572753906 41.5" height="78.9328203895167" data-palette-color="#000000"><g class="undefined-text-0" data-fill-palette-color="primary" id="text-0"><path d="M13.25 0.55L13.25 0.55Q9.6 0.55 7.15-0.88 4.7-2.3 3.45-5.05 2.2-7.8 2.05-11.8L2.05-11.8 8.4-13.05Q8.5-10.7 8.97-8.9 9.45-7.1 10.43-6.13 11.4-5.15 13-5.15L13-5.15Q14.8-5.15 15.55-6.23 16.3-7.3 16.3-8.95L16.3-8.95Q16.3-11.6 15.1-13.3 13.9-15 11.9-16.7L11.9-16.7 6.8-21.2Q4.65-23.05 3.38-25.33 2.1-27.6 2.1-30.95L2.1-30.95Q2.1-35.75 4.9-38.35 7.7-40.95 12.55-40.95L12.55-40.95Q15.4-40.95 17.3-40.08 19.2-39.2 20.33-37.65 21.45-36.1 22-34.13 22.55-32.15 22.7-29.95L22.7-29.95 16.4-28.85Q16.3-30.75 15.98-32.25 15.65-33.75 14.83-34.6 14-35.45 12.4-35.45L12.4-35.45Q10.75-35.45 9.88-34.38 9-33.3 9-31.7L9-31.7Q9-29.65 9.85-28.33 10.7-27 12.3-25.6L12.3-25.6 17.35-21.15Q19.85-19.05 21.63-16.23 23.4-13.4 23.4-9.4L23.4-9.4Q23.4-6.5 22.13-4.25 20.85-2 18.57-0.73 16.3 0.55 13.25 0.55ZM38.75 0.55L38.75 0.55Q34.45 0.55 31.9-1.05 29.35-2.65 28.25-5.65 27.15-8.65 27.15-12.75L27.15-12.75 27.15-27.9Q27.15-32 28.25-34.93 29.35-37.85 31.9-39.4 34.45-40.95 38.75-40.95L38.75-40.95Q43.15-40.95 45.67-39.4 48.2-37.85 49.32-34.93 50.45-32 50.45-27.9L50.45-27.9 50.45-12.7Q50.45-8.65 49.32-5.68 48.2-2.7 45.67-1.07 43.15 0.55 38.75 0.55ZM38.75-4.9L38.75-4.9Q40.6-4.9 41.47-5.7 42.35-6.5 42.65-7.9 42.95-9.3 42.95-10.95L42.95-10.95 42.95-29.6Q42.95-31.3 42.65-32.65 42.35-34 41.47-34.77 40.6-35.55 38.75-35.55L38.75-35.55Q37-35.55 36.1-34.77 35.2-34 34.9-32.65 34.6-31.3 34.6-29.6L34.6-29.6 34.6-10.95Q34.6-9.3 34.87-7.9 35.15-6.5 36.05-5.7 36.95-4.9 38.75-4.9ZM61.35 0L55.8 0 56.5-40.5 64.15-40.5 69.9-12.45 75.9-40.5 83.3-40.5 84.05 0 78.55 0 77.95-28.15 72.2 0 67.75 0 61.9-28.25 61.35 0ZM107.14 0L90.04 0 90.04-40.5 107.04-40.5 107.04-35.3 97.44-35.3 97.44-23.65 104.99-23.65 104.99-18.5 97.44-18.5 97.44-5.1 107.14-5.1 107.14 0Z" fill="#000000" data-fill-palette-color="primary"></path><path d="M121.84 0L110.19 0 110.19-40.5 120.14-40.5Q122.84-40.5 125.02-40 127.19-39.5 128.77-38.33 130.34-37.15 131.19-35.15 132.04-33.15 132.04-30.1L132.04-30.1Q132.04-27.65 131.37-25.9 130.69-24.15 129.39-23.13 128.09-22.1 126.14-21.75L126.14-21.75Q128.54-21.35 130.12-20.08 131.69-18.8 132.47-16.75 133.24-14.7 133.24-11.8L133.24-11.8Q133.24-8.9 132.52-6.68 131.79-4.45 130.37-2.98 128.94-1.5 126.82-0.75 124.69 0 121.84 0L121.84 0ZM117.59-18.85L117.59-5.2 120.39-5.2Q123.74-5.2 124.94-6.83 126.14-8.45 126.14-11.85L126.14-11.85Q126.14-14.3 125.57-15.83 124.99-17.35 123.67-18.1 122.34-18.85 120.14-18.85L120.14-18.85 117.59-18.85ZM117.59-35.35L117.59-23.95 120.09-23.95Q122.29-23.95 123.49-24.6 124.69-25.25 125.17-26.6 125.64-27.95 125.64-30L125.64-30Q125.64-32.15 124.92-33.33 124.19-34.5 122.74-34.93 121.29-35.35 119.04-35.35L119.04-35.35 117.59-35.35ZM155.24 0L138.04 0 138.04-40.5 145.44-40.5 145.44-5.1 155.24-5.1 155.24 0ZM170.09 0.55L170.09 0.55Q165.79 0.55 163.24-1.05 160.69-2.65 159.59-5.65 158.49-8.65 158.49-12.75L158.49-12.75 158.49-27.9Q158.49-32 159.59-34.93 160.69-37.85 163.24-39.4 165.79-40.95 170.09-40.95L170.09-40.95Q174.48-40.95 177.01-39.4 179.54-37.85 180.66-34.93 181.79-32 181.79-27.9L181.79-27.9 181.79-12.7Q181.79-8.65 180.66-5.68 179.54-2.7 177.01-1.07 174.48 0.55 170.09 0.55ZM170.09-4.9L170.09-4.9Q171.94-4.9 172.81-5.7 173.69-6.5 173.98-7.9 174.29-9.3 174.29-10.95L174.29-10.95 174.29-29.6Q174.29-31.3 173.98-32.65 173.69-34 172.81-34.77 171.94-35.55 170.09-35.55L170.09-35.55Q168.34-35.55 167.44-34.77 166.54-34 166.24-32.65 165.94-31.3 165.94-29.6L165.94-29.6 165.94-10.95Q165.94-9.3 166.21-7.9 166.49-6.5 167.39-5.7 168.29-4.9 170.09-4.9ZM197.38 0.55L197.38 0.55Q193.38 0.55 191.03-1.15 188.68-2.85 187.66-5.98 186.63-9.1 186.63-13.35L186.63-13.35 186.63-26.95Q186.63-31.3 187.63-34.45 188.63-37.6 191.16-39.28 193.68-40.95 198.13-40.95L198.13-40.95Q202.28-40.95 204.73-39.55 207.18-38.15 208.26-35.52 209.33-32.9 209.33-29.15L209.33-29.15 209.33-27.05 202.28-27.05 202.28-29.35Q202.28-31.3 202.01-32.7 201.73-34.1 200.91-34.83 200.08-35.55 198.23-35.55L198.23-35.55Q196.28-35.55 195.41-34.6 194.53-33.65 194.31-32.1 194.08-30.55 194.08-28.7L194.08-28.7 194.08-11.75Q194.08-9.65 194.43-8.1 194.78-6.55 195.73-5.73 196.68-4.9 198.43-4.9L198.43-4.9Q200.23-4.9 201.18-5.8 202.13-6.7 202.51-8.3 202.88-9.9 202.88-12.1L202.88-12.1 202.88-15.9 198.53-15.9 198.53-20.55 209.53-20.55 209.53 0 204.78 0 204.23-4Q203.43-2 201.81-0.73 200.18 0.55 197.38 0.55Z" fill="#000000" data-fill-palette-color="primary"></path></g></svg></g></svg></g></svg></g></svg></g><g></g></svg></g><defs></defs></svg><rect width="395.52" height="78.9328203895167" fill="none" stroke="none" visibility="hidden"></rect></g></svg></g></svg>